<svg width="272" height="36" viewBox="0 0 272 36" fill="none" xmlns="http://www.w3.org/2000/svg">
<path d="M201.01 28.2124C202.491 28.2124 203.739 26.9651 203.739 25.4839C203.739 24.0027 202.569 22.7554 201.01 22.7554C199.529 22.7554 198.36 24.0027 198.36 25.4839C198.36 26.9651 199.529 28.2124 201.01 28.2124Z" fill="white"/>
<path d="M46.3426 27.5106C45.1732 27.0428 44.0818 26.2632 43.3022 25.3277C42.4447 24.3923 41.821 23.3008 41.3533 22.0535C40.8855 20.8062 40.6517 19.4809 40.6517 17.9997C40.6517 16.5965 40.8855 15.1933 41.2753 13.9459C41.6651 12.6986 42.3667 11.6072 43.2243 10.6717C44.0818 9.73623 45.0952 9.03462 46.1866 8.48891C47.356 8.02117 48.6813 7.70934 50.1625 7.70934C51.4098 7.70934 52.5012 7.86525 53.5147 8.17709C54.5281 8.56687 55.3856 9.03462 56.1652 9.58032C56.9448 10.126 57.4905 10.9836 57.9582 11.8411C58.426 12.6986 58.7378 13.7121 58.8937 14.7255H53.9045C53.7485 13.868 53.3587 13.1664 52.7351 12.5427C52.1114 11.997 51.3319 11.6852 50.3964 11.6852C48.8372 11.6852 47.7458 12.2309 46.9662 13.3223C46.1867 14.4137 45.7969 15.8949 45.7969 17.7659C45.7969 19.6368 46.1867 21.0401 46.9662 22.2094C47.6678 23.3788 48.9152 23.8466 50.3964 23.8466C51.4878 23.8466 52.3453 23.5347 52.969 23.067C53.5926 22.5213 54.0604 21.6637 54.2163 20.5723H59.2056C59.1276 21.5858 58.8158 22.5992 58.426 23.4568C58.0362 24.3143 57.4125 25.0939 56.633 25.7955C55.9313 26.4192 54.9959 27.0428 53.9824 27.3546C52.891 27.7444 51.7996 27.9003 50.5523 27.9003C48.9152 28.2901 47.5899 27.9783 46.3426 27.5106Z" fill="white"/>
<path d="M66.9229 10.7499C67.6245 9.73647 68.4041 8.95689 69.2616 8.41119C70.1192 7.94344 71.2106 7.63161 72.5359 7.63161C73.5493 7.63161 74.4848 7.86548 75.1864 8.17731C75.966 8.5671 76.6676 9.03485 77.2133 9.65851C77.759 10.2822 78.2268 11.0617 78.5386 11.9972C78.9284 12.8548 79.0063 13.8682 79.0063 14.9596V27.6667H73.9391V15.7392C73.9391 14.6478 73.6273 13.7903 73.0816 13.1666C72.5359 12.5429 71.6783 12.1531 70.5869 12.1531C69.4175 12.1531 68.56 12.6209 67.8584 13.4005C67.1568 14.18 66.689 15.2715 66.689 16.6747V27.7447H61.6218V0.537471H66.689V10.7499H66.9229Z" fill="white"/>
<path d="M87.4264 27.5106C86.257 27.0428 85.1656 26.2632 84.3081 25.3277C83.4505 24.3923 82.8269 23.3009 82.3591 22.0535C81.9693 20.7283 81.7355 19.4809 81.7355 17.9997C81.7355 16.5965 81.9693 15.1933 82.4371 13.9459C82.9048 12.6986 83.6064 11.6072 84.386 10.6717C85.2435 9.73623 86.257 9.03462 87.3484 8.48891C88.5178 8.02117 89.7651 7.70934 91.1683 7.70934C92.7275 7.70934 94.0528 8.02117 95.2221 8.56687C96.3915 9.11258 97.327 9.97011 98.1845 10.9056C98.9641 11.919 99.5877 13.2443 100.055 14.5696C100.445 15.9728 100.679 17.6099 100.679 19.325H86.8027C87.0366 20.8062 87.5043 22.0535 88.2839 22.9111C89.0635 23.7686 90.2328 24.2363 91.714 24.2363C92.7275 24.2363 93.507 24.0025 94.1307 23.6127C94.6764 23.1449 95.2221 22.5992 95.378 21.8976H100.367C100.211 22.7551 99.8996 23.5347 99.4318 24.3143C98.9641 25.0939 98.3404 25.7175 97.6388 26.3412C96.9372 26.8869 96.0017 27.4326 94.9883 27.7444C93.9748 28.1342 92.8834 28.2122 91.6361 28.2122C90.1549 28.2901 88.7516 27.9783 87.4264 27.5106ZM88.2059 12.7766C87.5043 13.4782 87.0366 14.5696 86.8027 15.8169H95.3001C95.2221 14.5696 94.8323 13.5562 94.1307 12.7766C93.4291 11.997 92.4156 11.6072 91.3242 11.6072C89.921 11.6852 88.9076 12.075 88.2059 12.7766Z" fill="white"/>
<path d="M108.24 27.5106C107.071 27.0428 105.98 26.2632 105.2 25.3277C104.343 24.3923 103.719 23.3008 103.251 22.0535C102.783 20.8062 102.55 19.4809 102.55 17.9997C102.55 16.5965 102.783 15.1933 103.173 13.9459C103.563 12.6986 104.265 11.6072 105.122 10.6717C105.98 9.73623 106.993 9.03462 108.085 8.48891C109.254 8.02117 110.579 7.70934 112.06 7.70934C113.308 7.70934 114.399 7.86525 115.413 8.17709C116.426 8.56687 117.284 9.03462 118.063 9.58032C118.843 10.126 119.388 10.9836 119.856 11.8411C120.324 12.6986 120.636 13.7121 120.792 14.7255H115.802C115.646 13.868 115.257 13.1664 114.633 12.5427C114.009 11.997 113.23 11.6852 112.294 11.6852C110.735 11.6852 109.644 12.2309 108.864 13.3223C108.085 14.4137 107.695 15.8949 107.695 17.7659C107.695 19.6368 108.085 21.0401 108.864 22.2094C109.566 23.3788 110.813 23.8466 112.294 23.8466C113.386 23.8466 114.243 23.5347 114.867 23.067C115.49 22.5213 115.958 21.6637 116.114 20.5723H121.025C120.948 21.5858 120.636 22.5992 120.246 23.4568C119.856 24.3143 119.232 25.0939 118.453 25.7955C117.751 26.4192 116.816 27.0428 115.802 27.3546C114.711 27.7444 113.619 27.9003 112.372 27.9003C110.813 28.2901 109.488 27.9783 108.24 27.5106Z" fill="white"/>
<path d="M128.743 21.1183V27.6667H123.754V0.537471H128.743V15.5833L135.526 8.25527H141.606L134.512 15.6612L142.464 27.6667H136.305L130.926 18.7795L128.743 21.1183Z" fill="white"/>
<path d="M147.999 27.5106C146.83 27.0428 145.738 26.2632 144.803 25.3277C143.945 24.3923 143.244 23.3008 142.776 22.0535C142.308 20.8062 142.074 19.4809 142.074 17.9997C142.074 16.5965 142.308 15.1933 142.776 13.9459C143.244 12.6986 143.945 11.6072 144.803 10.6717C145.66 9.73623 146.752 9.03462 147.999 8.48891C149.168 8.02117 150.572 7.70934 152.053 7.70934C153.534 7.70934 154.859 8.02117 156.107 8.48891C157.276 8.95666 158.367 9.73623 159.303 10.6717C160.16 11.6072 160.862 12.6986 161.33 13.9459C161.797 15.1933 162.031 16.5185 162.031 17.9997C162.031 19.403 161.797 20.8062 161.33 22.0535C160.862 23.3008 160.16 24.3923 159.303 25.3277C158.445 26.2632 157.354 26.9649 156.107 27.5106C154.937 27.9783 153.534 28.2901 152.053 28.2901C150.572 28.2901 149.246 27.9783 147.999 27.5106ZM155.639 22.5992C156.496 21.4299 156.886 19.9487 156.886 17.9997C156.886 16.0508 156.496 14.5696 155.639 13.4002C154.781 12.2309 153.612 11.6072 152.053 11.6072C150.494 11.6072 149.324 12.1529 148.467 13.4002C147.609 14.5696 147.219 16.1288 147.219 17.9997C147.219 19.8707 147.609 21.4299 148.467 22.5992C149.324 23.7686 150.494 24.3143 152.053 24.3143C153.612 24.3143 154.859 23.7686 155.639 22.5992Z" fill="white"/>
<path d="M176.922 25.4059H176.766C176.142 26.2634 175.362 26.965 174.583 27.5107C173.725 27.9785 172.634 28.2123 171.309 28.2123C169.204 28.2123 167.567 27.5887 166.319 26.3413C165.15 25.0161 164.604 23.379 164.604 21.1961V8.25519H169.593V20.3386C169.593 21.508 169.905 22.3655 170.373 22.9112C170.841 23.4569 171.698 23.8467 172.79 23.8467C173.959 23.8467 174.895 23.379 175.596 22.5994C176.298 21.8198 176.688 20.7284 176.688 19.4031V8.25519H181.755V27.6666H176.844L176.922 25.4059Z" fill="white"/>
<path d="M186.744 2.09662H191.733V8.25527H195.008V11.6074H191.733V21.8978C191.733 22.5995 191.889 23.1452 192.201 23.379C192.591 23.6909 192.981 23.8468 193.604 23.8468H194.618C194.774 23.8468 195.008 23.8468 195.086 23.7688V27.6667C194.774 27.6667 194.618 27.7447 194.228 27.7447C193.916 27.7447 193.604 27.8226 193.215 27.8226H191.889C191.266 27.8226 190.72 27.7447 190.018 27.5887C189.395 27.4328 188.849 27.199 188.381 26.8871C187.914 26.4973 187.446 26.0296 187.212 25.4839C186.978 24.9382 186.744 24.0807 186.744 23.1452V11.6854H184.094V8.33323H186.744V2.09662Z" fill="white"/>
<path d="M211.067 27.4328C209.976 26.965 209.118 26.1854 208.339 25.2499C207.559 24.3145 207.013 23.223 206.623 21.9757C206.234 20.7284 206.078 19.4031 206.078 17.844C206.078 16.3628 206.312 15.0375 206.623 13.7122C207.013 12.4649 207.637 11.3735 208.339 10.438C209.118 9.50251 210.054 8.8009 211.067 8.25519C212.158 7.78745 213.406 7.47562 214.809 7.47562C216.914 7.47562 218.707 8.02132 220.032 9.11273C221.357 10.2041 222.215 11.7633 222.605 13.7902H220.344C220.032 12.3869 219.486 11.2176 218.473 10.516C217.538 9.81435 216.368 9.42456 214.887 9.42456C213.718 9.42456 212.86 9.65843 212.003 10.0482C211.223 10.516 210.521 11.0617 210.054 11.8412C209.586 12.5429 209.118 13.4783 208.884 14.4918C208.572 15.5052 208.494 16.5966 208.494 17.766C208.494 18.9354 208.65 20.0268 208.884 21.0402C209.196 22.0537 209.508 22.9112 210.054 23.6908C210.521 24.4704 211.223 25.094 212.003 25.4838C212.782 25.9516 213.796 26.1075 214.809 26.1075C216.446 26.1075 217.771 25.6397 218.785 24.7042C219.798 23.7687 220.344 22.4435 220.578 20.8843H222.761C222.527 23.1451 221.747 24.8602 220.344 26.1854C219.019 27.5107 217.148 28.1344 214.809 28.1344C213.406 28.2123 212.158 27.9005 211.067 27.4328Z" fill="white"/>
<path d="M229.932 27.4328C228.763 26.965 227.905 26.1854 227.126 25.2499C226.346 24.3145 225.801 23.223 225.333 21.9757C224.943 20.7284 224.709 19.4031 224.709 17.844C224.709 16.3628 224.943 15.0375 225.333 13.7122C225.723 12.4649 226.346 11.3735 227.126 10.438C227.905 9.50251 228.841 8.8009 229.932 8.25519C231.024 7.70949 232.271 7.47562 233.674 7.47562C235.078 7.47562 236.325 7.78745 237.416 8.25519C238.508 8.72294 239.443 9.50251 240.223 10.438C241.002 11.3735 241.548 12.4649 242.016 13.7122C242.406 14.9595 242.561 16.2848 242.561 17.844C242.561 19.3252 242.328 20.6504 242.016 21.9757C241.626 23.223 241.002 24.3145 240.223 25.2499C239.443 26.1854 238.508 26.8871 237.416 27.4328C236.325 27.9005 235.078 28.2123 233.674 28.2123C232.349 28.2123 231.102 27.9005 229.932 27.4328ZM236.559 25.6397C237.416 25.172 238.04 24.6263 238.586 23.8467C239.131 23.0671 239.599 22.2096 239.755 21.1961C240.067 20.1827 240.145 19.0913 240.145 17.9219C240.145 16.7526 239.989 15.6612 239.755 14.6477C239.443 13.6343 239.053 12.7767 238.586 11.9972C238.04 11.2176 237.416 10.5939 236.559 10.2041C235.701 9.73639 234.766 9.58047 233.752 9.58047C232.661 9.58047 231.725 9.81434 230.946 10.2041C230.166 10.6719 229.465 11.2176 228.919 11.9972C228.373 12.7767 227.905 13.6343 227.672 14.6477C227.36 15.6612 227.282 16.7526 227.282 17.9219C227.282 19.0913 227.438 20.1827 227.672 21.1961C227.983 22.2096 228.373 23.0671 228.919 23.8467C229.465 24.6263 230.166 25.2499 230.946 25.6397C231.725 26.1075 232.739 26.2634 233.752 26.2634C234.766 26.2634 235.779 26.0295 236.559 25.6397Z" fill="white"/>
<path d="M248.253 8.0214V10.9838H248.33C248.954 9.97034 249.734 9.19076 250.669 8.5671C251.605 7.94344 252.774 7.63161 254.177 7.63161C255.347 7.63161 256.438 7.94344 257.374 8.48914C258.309 9.03485 258.933 9.97034 259.322 11.1397H259.4C260.024 9.97034 260.882 9.1128 261.973 8.48914C263.064 7.86548 264.234 7.55365 265.559 7.55365C266.417 7.55365 267.118 7.70957 267.82 8.0214C268.521 8.33323 269.145 8.64506 269.691 9.19076C270.159 9.65851 270.626 10.3601 270.86 11.1397C271.172 11.9193 271.25 12.7768 271.25 13.7123V27.7447H268.989V13.9462C268.989 12.5429 268.599 11.4515 267.82 10.672C267.04 9.97034 266.027 9.65851 264.935 9.65851C264.234 9.65851 263.532 9.81442 262.987 10.0483C262.363 10.3601 261.817 10.672 261.349 11.1397C260.96 11.6074 260.492 12.2311 260.18 12.8548C259.868 13.5564 259.79 14.258 259.79 15.1935V27.7447H257.452V13.9462C257.452 12.5429 257.062 11.4515 256.282 10.672C255.581 9.97034 254.645 9.65851 253.554 9.65851C252.852 9.65851 252.228 9.81442 251.605 10.1263C250.981 10.4381 250.435 10.7499 249.812 11.2956C249.344 11.7634 248.876 12.387 248.642 13.0886C248.33 13.7123 248.253 14.4919 248.253 15.3494V27.7447H245.914V8.0214H248.253Z" fill="white"/>
<path d="M21.5519 18.078L30.595 1.94074C30.8289 1.55096 30.8289 1.23912 30.595 0.849336C30.3611 0.537506 30.0493 0.381592 29.6595 0.381592H10.9497C10.5599 0.381592 10.2481 0.615463 10.0142 0.849336L0.425405 17.4543C0.191532 17.8441 0.191532 18.2339 0.425405 18.5457L10.0142 35.1507C10.2481 35.5405 10.5599 35.6184 10.9497 35.6184H29.6595C30.0493 35.6184 30.3611 35.3845 30.595 35.1507C30.8289 34.7609 30.8289 34.449 30.595 34.0593L21.5519 18.078ZM20.3046 15.8951L12.8207 2.48644H27.8665L20.3046 15.8951ZM10.8717 3.57785L18.9793 18.078L10.8717 32.5001L2.53026 18.078L10.8717 3.57785ZM12.8207 33.5136L20.3046 20.1049L27.7885 33.5136H12.8207Z" fill="white"/>
</svg>
