<svg width="62" height="62" viewBox="0 0 62 62" fill="none" xmlns="http://www.w3.org/2000/svg">
<path d="M32.293 51.6665H27.1263C17.4166 51.6665 12.5618 51.6665 9.32056 49.1067C8.80215 48.6973 8.32271 48.2461 7.8877 47.7581C5.16797 44.7075 5.16797 40.1383 5.16797 30.9998C5.16797 21.8613 5.16797 17.292 7.8877 14.2415C8.32271 13.7535 8.80215 13.3023 9.32056 12.8929C12.5618 10.3331 17.4166 10.3331 27.1263 10.3331H34.8763C44.586 10.3331 49.4408 10.3331 52.682 12.8929C53.2005 13.3023 53.6799 13.7535 54.1149 14.2415C56.5653 16.99 56.808 20.9713 56.832 28.4165" stroke="white" stroke-width="2" stroke-linecap="round" stroke-linejoin="round"/>
<path d="M5.16797 23.2496H56.8346" stroke="white" stroke-width="2" stroke-linejoin="round"/>
<path d="M56.8339 36.1666L41.3339 51.6666M56.8339 51.6666L41.3339 36.1666" stroke="white" stroke-width="2" stroke-linecap="round"/>
</svg>
