<svg width="97" height="96" viewBox="0 0 97 96" fill="none" xmlns="http://www.w3.org/2000/svg">
<rect x="0.185791" width="96.1859" height="95.1734" rx="47.5867" fill="black"/>
<rect x="1.19827" y="1.01248" width="94.1609" height="93.1484" rx="46.5742" stroke="url(#paint0_linear_8_1744)" stroke-opacity="0.3" stroke-width="2.02497"/>
<path d="M30.5609 40.266C30.5609 38.0961 31.436 36.7662 33.2468 35.7585L40.7011 31.6101C44.6071 29.4363 46.5601 28.3495 48.7012 28.3495C50.8423 28.3495 52.7953 29.4363 56.7013 31.6101L64.1556 35.7585C65.9665 36.7662 66.8415 38.0961 66.8415 40.266C66.8415 40.8544 66.8415 41.1486 66.7773 41.3904C66.4397 42.6612 65.2882 42.8617 64.1762 42.8617H33.2262C32.1142 42.8617 30.9628 42.6612 30.6252 41.3904C30.5609 41.1486 30.5609 40.8544 30.5609 40.266Z" stroke="white" stroke-width="1.51872"/>
<path d="M48.6942 37.4198H48.7105" stroke="white" stroke-width="1.51872" stroke-linecap="round" stroke-linejoin="round"/>
<path d="M34.1896 42.8619V58.2811M41.4457 42.8619V58.2811" stroke="white" stroke-width="1.51872"/>
<path d="M55.958 42.8619V58.2811M63.2141 42.8619V58.2811" stroke="white" stroke-width="1.51872"/>
<path d="M61.3994 58.281H36.003C32.9974 58.281 30.5609 60.7175 30.5609 63.7231C30.5609 64.224 30.967 64.6301 31.4679 64.6301H65.9345C66.4355 64.6301 66.8415 64.224 66.8415 63.7231C66.8415 60.7175 64.405 58.281 61.3994 58.281Z" stroke="white" stroke-width="1.51872"/>
<defs>
<linearGradient id="paint0_linear_8_1744" x1="0.185791" y1="3.49535" x2="111.57" y2="32.7895" gradientUnits="userSpaceOnUse">
<stop stop-color="white"/>
<stop offset="0.325893" stop-color="white" stop-opacity="0.256139"/>
<stop offset="0.695684" stop-color="white" stop-opacity="0.735087"/>
<stop offset="1" stop-color="white" stop-opacity="0.07"/>
</linearGradient>
</defs>
</svg>
