<svg width="270" height="40" viewBox="0 0 270 40" fill="none" xmlns="http://www.w3.org/2000/svg">
<path d="M7.19564 21.0008L0.954333 32.0823C-0.194922 34.1115 0.0811977 36.5649 1.64401 38.2633C2.65521 39.3485 3.94252 39.9144 5.27524 39.9144C6.05695 39.9144 6.88407 39.726 7.61977 39.3485L20.335 32.6893L12.8499 28.7695C10.1932 27.374 8.30882 24.9747 7.46865 22.142C7.35671 21.7639 7.26591 21.3833 7.19564 21.0008Z" fill="white"/>
<path d="M23.3466 0.000384646C25.9206 0.000384646 28.2652 1.36854 29.5519 3.68074L45.5482 32.0831C46.6974 34.1117 46.4213 36.5651 44.8585 38.2635C43.8473 39.3487 42.5606 39.9146 41.2273 39.9146C40.4462 39.9146 39.6184 39.7262 38.8833 39.3487L14.1072 26.3742C12.1308 25.3362 10.7061 23.5433 10.0624 21.3729C9.41875 19.2025 9.69487 16.8909 10.7981 14.9096L17.0954 3.68074C18.4281 1.36854 20.7266 0.000384646 23.3466 0.000384646Z" fill="white"/>
<path d="M88.7539 6.57006V24.7343L71.1979 3.93635C70.9952 3.70003 70.6911 3.63287 70.4212 3.73424L66.3024 5.42205C66.0319 5.52342 65.8633 5.75974 65.8633 6.06384V36.0104C65.8633 36.3816 66.1674 36.6858 66.5387 36.6858H71.7041C72.0754 36.6858 72.3795 36.3816 72.3795 36.0104V15.4158L90.1047 36.4494C90.2396 36.618 90.4081 36.6858 90.6109 36.6858H94.5947C94.966 36.6858 95.2701 36.3816 95.2701 36.0104V4.54456C95.2701 4.07192 94.7975 3.73424 94.3584 3.90277L89.193 5.92889C88.9224 6.06384 88.7539 6.30016 88.7539 6.57006Z" fill="white"/>
<path d="M115.008 29.5284C113.793 30.7436 112.239 31.3853 110.416 31.3853C108.593 31.3853 107.074 30.7778 105.859 29.5284C104.643 28.3126 104.035 26.7261 104.035 24.8356C104.035 22.945 104.643 21.3916 105.859 20.1422C107.074 18.927 108.593 18.2858 110.416 18.2858C112.239 18.2858 113.793 18.8934 115.008 20.1422C116.224 21.358 116.865 22.945 116.865 24.8356C116.865 26.7261 116.224 28.279 115.008 29.5284ZM110.416 12.3437C106.905 12.3437 103.968 13.5588 101.537 15.9562C99.106 18.3866 97.9245 21.3244 97.9245 24.8356C97.9245 28.3468 99.1396 31.284 101.537 33.715C103.968 36.1459 106.905 37.3275 110.416 37.3275C113.928 37.3275 116.898 36.1117 119.329 33.715C121.76 31.284 122.975 28.3468 122.975 24.8356C122.975 21.3244 121.76 18.3866 119.329 15.9562C116.865 13.5588 113.928 12.3437 110.416 12.3437Z" fill="white"/>
<path d="M126.307 36.6852H131.067C131.439 36.6852 131.743 36.3817 131.743 36.0098V25.5042C131.743 23.2418 132.485 21.2959 133.937 20.3164C135.22 19.4725 136.638 19.0677 138.225 19.1348C138.596 19.1348 138.934 18.8313 138.934 18.4601V13.2206C138.934 12.8152 138.596 12.5117 138.225 12.5453C136.908 12.6466 135.692 13.0179 134.579 13.6597C133.262 14.4022 132.316 15.5502 131.776 17.0695V14.031C131.776 13.5583 131.304 13.2206 130.865 13.3892L126.071 15.2803C125.801 15.3817 125.632 15.618 125.632 15.9215V36.0098C125.632 36.3817 125.936 36.6852 126.307 36.6852Z" fill="white"/>
<path d="M141.586 12.9195H143.68V8.79205C143.68 8.48857 143.848 8.25225 144.119 8.15088L148.878 6.25971C149.318 6.09118 149.79 6.42886 149.79 6.9015V12.9195H156.019C156.391 12.9195 156.695 13.2236 156.695 13.5949V18.2168C156.695 18.5881 156.391 18.8916 156.019 18.8916H149.79V27.5452C149.79 29.9873 151.344 31.1266 153.134 31.1266C153.999 31.1266 154.929 30.9482 155.648 30.7355C156.135 30.5912 156.715 30.9569 156.715 31.4631V36.2106C156.715 36.4818 156.548 36.7262 156.288 36.8082C155.63 37.016 154.599 37.3132 153.134 37.3132C149.227 37.3132 143.68 34.5452 143.68 28.0334V18.8916H141.586C141.215 18.8916 140.911 18.5881 140.911 18.2168V13.5949C140.911 13.2236 141.215 12.9195 141.586 12.9195Z" fill="white"/>
<path d="M208.58 27.8735C206.521 29.899 203.988 30.912 200.95 30.912C197.911 30.912 195.379 29.899 193.32 27.8735C191.259 25.848 190.247 23.2478 190.247 20.0743C190.247 16.9344 191.259 14.3013 193.32 12.2752C195.379 10.2161 197.911 9.20306 200.95 9.20306C203.988 9.20306 206.521 10.2161 208.58 12.2752C210.639 14.3349 211.653 16.9344 211.653 20.0743C211.653 23.2478 210.639 25.848 208.58 27.8735ZM200.95 2.85604C196.156 2.85604 192.105 4.51027 188.762 7.85231C185.419 11.195 183.766 15.2466 183.766 20.0743C183.766 24.9027 185.419 28.9879 188.762 32.2964C192.105 35.6384 196.156 37.2933 200.95 37.2933C205.744 37.2933 209.83 35.6384 213.171 32.2964C216.514 28.9537 218.202 24.9027 218.202 20.0743C218.202 15.2466 216.514 11.1614 213.171 7.85231C209.83 4.54385 205.744 2.85604 200.95 2.85604Z" fill="white"/>
<path d="M233.974 12.3429C230.766 12.3429 228.403 13.4573 226.917 15.6513V14.0307C226.917 13.558 226.444 13.221 226.007 13.3895L221.246 15.2465C220.976 15.3478 220.807 15.5842 220.807 15.8876V35.976C220.807 36.3479 221.11 36.6513 221.482 36.6513H226.242C226.614 36.6513 226.917 36.3479 226.917 35.976V23.8895C226.917 21.9312 227.391 20.4797 228.336 19.5002C229.281 18.5213 230.53 18.0487 232.116 18.0487C233.535 18.0487 234.682 18.4536 235.526 19.2981C236.372 20.142 236.809 21.3572 236.809 22.9107V36.0102C236.809 36.3814 237.115 36.6855 237.485 36.6855H242.246C242.617 36.6855 242.921 36.3814 242.921 36.0102V22.1675C242.921 19.0953 242.077 16.698 240.389 14.9759C238.701 13.221 236.574 12.3429 233.974 12.3429Z" fill="white"/>
<path d="M251.771 22.6072C252.109 21.0879 252.817 19.9063 253.898 19.096C254.979 18.2521 256.328 17.8466 257.984 17.8466C259.368 17.8466 260.616 18.2521 261.697 19.0282C262.777 19.8049 263.521 21.0201 263.858 22.6408H251.771V22.6072ZM269.97 24.8354C269.97 21.2906 268.855 18.3192 266.592 15.9225C264.33 13.5251 261.46 12.3099 258.016 12.3099C254.371 12.3099 251.366 13.4915 249.036 15.8883C246.707 18.2857 245.524 21.2564 245.524 24.8018C245.524 28.4144 246.707 31.3852 249.07 33.7484C251.434 36.1122 254.574 37.2938 258.49 37.2938C262.743 37.2938 266.019 35.8081 268.348 32.8373C268.585 32.4996 268.517 32.027 268.146 31.8242L264.365 29.6296C264.095 29.461 263.757 29.5282 263.521 29.7645C262.338 31.0817 260.684 31.7229 258.557 31.7229C254.91 31.7229 252.716 30.2372 251.873 27.2664H269.158C269.496 27.2664 269.766 26.9965 269.834 26.6924C269.901 26.0848 269.97 25.443 269.97 24.8354Z" fill="white"/>
<path d="M159.371 2.57631V36.0104C159.371 36.3817 159.674 36.6858 160.047 36.6858H164.806C165.179 36.6858 165.482 36.3817 165.482 36.0104V23.8898C165.482 21.9314 165.954 20.4799 166.901 19.5005C167.845 18.5216 169.094 18.049 170.681 18.049C172.099 18.049 173.247 18.4538 174.091 19.2983C174.935 20.1423 175.374 21.3574 175.374 22.9109V36.0104C175.374 36.3817 175.678 36.6858 176.049 36.6858H180.809C181.181 36.6858 181.485 36.3817 181.485 36.0104V22.1677C181.485 19.0956 180.641 16.6982 178.953 14.9768C177.265 13.2548 175.137 12.3767 172.538 12.3767C169.331 12.3767 166.967 13.4911 165.482 15.6858V0.685766C165.482 0.213128 165.009 -0.124559 164.57 0.043973L159.81 1.93452C159.539 2.03589 159.371 2.27221 159.371 2.57631Z" fill="white"/>
</svg>
