<svg width="177" height="40" viewBox="0 0 177 40" fill="none" xmlns="http://www.w3.org/2000/svg">
<path d="M114.671 14.5657C111.697 11.9321 108.109 10.645 103.959 10.645C99.8667 10.645 96.2776 11.9342 93.3026 14.5657C90.3294 17.1422 88.8187 20.7285 88.8187 25.3225C88.8187 29.9165 90.3294 33.5005 93.3026 36.1344C96.2757 38.7107 99.8667 40 103.959 40C108.109 40 111.697 38.7107 114.671 36.1344C117.701 33.5005 119.212 29.9165 119.212 25.3225C119.212 20.7285 117.699 17.1422 114.671 14.5657ZM98.3538 31.2036C96.7858 29.6921 95.9963 27.7296 95.9963 25.3225C95.9963 22.9133 96.7794 20.9529 98.3538 19.4963C99.9218 17.9848 101.775 17.2565 103.957 17.2565C106.141 17.2565 108.049 17.9848 109.62 19.4963C111.243 20.9529 112.032 22.9133 112.032 25.3225C112.032 27.7317 111.249 29.6921 109.62 31.2036C108.052 32.6602 106.143 33.3885 103.957 33.3885C101.775 33.3885 99.9259 32.6602 98.3538 31.2036Z" fill="white"/>
<path d="M129.815 39.2136V0.772186H122.75V39.2136H129.815Z" fill="white"/>
<path d="M152.622 11.4275V26.7655C152.622 30.4619 150.622 32.9114 146.815 32.9114C142.945 32.9114 140.998 30.464 140.998 26.7655V11.4275H133.92V27.9426C133.92 34.3402 137.957 39.9972 146.815 39.9972H146.87C155.673 39.9972 159.704 34.2154 159.704 27.9426V11.4275H152.622Z" fill="white"/>
<path d="M81.2967 11.4275L74.2311 30.2502L67.1655 11.4275H59.6512L70.9258 39.2138H77.545L88.8173 11.4275H81.2967Z" fill="white"/>
<path d="M59.6876 24.5371C59.6876 20.5041 58.3989 17.1994 55.8745 14.5657C53.35 11.9321 50.1017 10.645 46.1193 10.645C42.0268 10.645 38.5481 12.0464 35.6873 14.7901C32.8812 17.536 31.4825 21.0079 31.4825 25.3225C31.4825 29.637 32.8834 33.1661 35.6322 35.9098C38.438 38.6557 41.8025 40 45.7829 40C51.8985 40 56.2152 37.3114 58.8453 31.8769L53.5765 28.8516C51.8412 32.2685 49.3148 33.9495 45.8949 33.9495C41.6905 33.9495 38.7173 31.2608 38.2687 27.0034H59.6856V24.5371H59.6876ZM45.8908 16.0223C49.8712 16.0223 52.51 18.2621 53.1807 21.8484H38.2645C39.333 18.5437 42.2447 16.0223 45.8908 16.0223Z" fill="white"/>
<path d="M31.4832 39.2143L22.0032 22.6334C28.0002 20.4486 30.9733 16.64 30.9733 11.0933C30.9796 4.31455 25.5921 0 17.0135 0H0.25V39.2143H7.65201V23.3045H13.9346L23.0168 39.2143H31.4832ZM17.0135 6.49723C21.3874 6.49723 23.5755 8.23323 23.5755 11.6501C23.5755 15.0671 21.3853 16.803 17.0135 16.803H7.65201V6.49723H17.0135Z" fill="white"/>
<path d="M171.682 39.9974C167.135 39.9974 163.446 36.3117 163.446 31.7623V3.92093H170.512V11.4386H176.57V17.1525H170.512V31.3092C170.512 32.6429 171.593 33.7226 172.93 33.7226H176.57V39.9974H171.682Z" fill="white"/>
</svg>
