<svg width="50" height="50" viewBox="0 0 50 50" fill="none" xmlns="http://www.w3.org/2000/svg">
<path d="M33.3379 28.1251C33.3379 29.851 34.737 31.2501 36.4629 31.2501C38.1888 31.2501 39.5879 29.851 39.5879 28.1251C39.5879 26.3992 38.1888 25.0001 36.4629 25.0001C34.737 25.0001 33.3379 26.3992 33.3379 28.1251Z" stroke="white" stroke-width="2"/>
<path d="M20.8353 31.2501L6.25195 45.8335M20.8353 45.8335L6.25195 31.2501" stroke="white" stroke-width="2" stroke-linecap="round"/>
<path d="M20.8385 14.5835H33.3385C39.2311 14.5835 42.1774 14.5835 44.008 16.414C45.8385 18.2446 45.8385 21.1909 45.8385 27.0835V31.2501C45.8385 37.1427 45.8385 40.089 44.008 41.9195C42.1774 43.7501 39.2311 43.7501 33.3385 43.7501H28.1282M37.5052 14.5835C37.5052 12.646 37.5052 11.6773 37.2922 10.8825C36.7143 8.72568 35.0297 7.04101 32.8728 6.46309C32.078 6.25012 31.1093 6.25012 29.1719 6.25012H20.8385C12.9818 6.25012 9.05343 6.25012 6.61265 8.6909C4.17188 11.1317 4.17188 15.06 4.17188 22.9168V25.0001" stroke="white" stroke-width="2" stroke-linecap="round"/>
</svg>
